<svg width="40" height="40" viewBox="0 0 40 40" fill="none" xmlns="http://www.w3.org/2000/svg">
  <rect width="40" height="40" rx="20" fill="#FF0000"/>
  <path d="M28.6 15.4C28.4246 14.7584 27.9757 14.2377 27.3879 14.0125C26.1868 13.5643 19.9998 13.5643 19.9998 13.5643C19.9998 13.5643 13.8129 13.5643 12.6117 14.0125C12.0239 14.2377 11.575 14.7584 11.3996 15.4C11 16.88 11 20 11 20C11 20 11 23.12 11.3996 24.6C11.575 25.2416 12.0239 25.7623 12.6117 25.9875C13.8129 26.4357 19.9998 26.4357 19.9998 26.4357C19.9998 26.4357 26.1868 26.4357 27.3879 25.9875C27.9757 25.7623 28.4246 25.2416 28.6 24.6C29 23.12 29 20 29 20C29 20 29 16.88 28.6 15.4Z" fill="white"/>
  <path d="M17.7959 23.021V16.979L22.7348 20L17.7959 23.021Z" fill="#FF0000"/>
</svg>
