<?xml version="1.0" standalone="no"?>
<!DOCTYPE svg PUBLIC "-//W3C//DTD SVG 20010904//EN"
 "http://www.w3.org/TR/2001/REC-SVG-20010904/DTD/svg10.dtd">
<svg version="1.0" xmlns="http://www.w3.org/2000/svg"
 width="3315.000000pt" height="5319.000000pt" viewBox="0 0 3315.000000 5319.000000"
 preserveAspectRatio="xMidYMid meet">

<g transform="translate(0.000000,5319.000000) scale(0.100000,-0.100000)"
fill="#000000" stroke="none">
<path d="M15885 53170 c-896 -42 -1803 -194 -2730 -459 -2413 -689 -4435
-1995 -6015 -3886 -1091 -1306 -1852 -2736 -2294 -4310 -160 -569 -269 -1121
-325 -1650 -49 -451 -59 -698 -76 -1922 l-15 -1082 27 -71 28 -72 45 7 c25 4
46 8 48 9 1 2 7 63 12 137 6 74 26 247 45 384 19 138 58 439 85 670 126 1045
196 1389 410 2025 699 2084 1961 3755 3794 5023 422 292 961 607 1395 814
1708 816 3481 1105 5441 887 984 -109 1860 -336 2723 -705 1359 -582 2661
-1531 3652 -2664 778 -889 1404 -1943 1835 -3090 565 -1506 751 -3119 554
-4805 -88 -750 -286 -1459 -629 -2250 -275 -634 -646 -1167 -1172 -1680 -423
-414 -831 -727 -1503 -1150 -583 -368 -1014 -663 -1465 -1000 -1795 -1343
-3060 -2800 -3914 -4510 -696 -1395 -1136 -2977 -1256 -4515 -53 -692 -40
-1261 51 -2065 37 -335 141 -1151 170 -1340 142 -922 467 -1891 970 -2900 521
-1042 1123 -1936 1879 -2790 166 -187 748 -769 935 -935 855 -757 1733 -1350
2785 -1880 351 -177 442 -216 716 -301 101 -31 191 -59 199 -62 37 -14 -307
273 -825 688 -428 343 -619 501 -815 675 -1204 1069 -2016 2448 -2420 4110
-159 653 -225 1190 -224 1820 1 442 23 712 94 1136 272 1626 914 3009 1933
4166 905 1026 1950 1802 3137 2328 1045 463 2192 735 3495 827 249 17 1040 17
1315 -1 522 -35 1204 -8 1545 60 604 121 1010 508 1090 1036 28 182 17 298
-56 585 -73 294 -80 345 -99 736 -19 420 22 675 150 927 67 131 149 253 347
517 191 254 235 321 263 404 28 79 26 139 -6 203 -35 70 -104 123 -269 208
-115 59 -141 78 -222 158 -109 107 -143 168 -143 257 0 88 50 174 220 378 71
85 95 103 200 149 144 64 297 199 349 310 37 80 37 201 -1 282 -85 184 -349
509 -563 694 -228 197 -338 328 -421 500 -188 394 -60 800 352 1117 90 69 228
153 429 263 239 130 299 170 396 262 98 94 156 173 208 285 130 277 131 658 2
934 -103 219 -227 343 -526 526 -644 394 -1153 830 -1616 1384 -597 714 -911
1454 -1124 2650 -20 110 -60 375 -91 589 -177 1261 -290 1841 -505 2599 -353
1243 -922 2370 -1763 3491 -1216 1621 -2759 2876 -4586 3730 -1419 663 -2892
1029 -4605 1145 -213 14 -825 20 -1050 10z"/>
<path d="M14485 47684 c-881 -44 -1547 -150 -2325 -370 -1094 -309 -2210 -853
-3230 -1572 -262 -185 -574 -425 -815 -626 -620 -517 -1122 -1077 -1514 -1688
-304 -475 -605 -1114 -690 -1463 -31 -129 -109 -538 -101 -528 4 4 47 67 95
138 2057 3029 4921 4638 8570 4816 482 23 1161 2 1640 -52 2592 -290 4776
-1595 6560 -3919 l88 -115 -7 104 c-33 516 -219 1058 -559 1626 -879 1469
-2114 2474 -3758 3059 -818 290 -1851 497 -2859 571 -191 14 -934 27 -1095 19z"/>
<path d="M14185 44524 c-38 -2 -151 -8 -250 -14 -1860 -112 -3878 -781 -5378
-1782 -492 -328 -885 -648 -1301 -1058 -1056 -1042 -1670 -2089 -1850 -3157
-45 -268 -51 -351 -51 -698 1 -284 4 -353 23 -495 56 -412 143 -756 259 -1020
40 -91 327 -648 349 -678 1 -2 19 4 39 12 34 15 37 18 32 48 -17 94 -89 612
-102 738 -9 80 -19 269 -22 420 -8 396 14 657 87 1020 164 815 545 1566 1166
2295 144 170 598 628 779 786 1153 1010 2529 1691 4170 2064 623 141 1174 222
1740 255 220 13 854 13 1065 0 1341 -81 2646 -427 4020 -1065 91 -42 341 -166
555 -275 424 -215 542 -271 769 -362 499 -199 959 -301 1431 -315 366 -11 604
21 921 125 l178 57 -145 54 c-568 210 -1031 460 -2038 1100 -976 621 -1300
801 -1918 1067 -1160 499 -2284 775 -3518 864 -148 11 -874 21 -1010 14z"/>
<path d="M14110 41313 c-337 -14 -711 -48 -1000 -89 -2128 -301 -3826 -1290
-5160 -3003 -785 -1009 -1107 -2250 -889 -3426 98 -531 310 -1036 624 -1485
119 -171 213 -259 377 -354 l47 -28 -41 114 c-389 1071 -438 2008 -151 2893
364 1123 1135 2087 2273 2840 1142 756 2333 1166 3715 1277 209 17 936 17
1155 0 799 -62 1313 -161 2585 -497 1036 -274 1466 -368 1944 -426 215 -26
709 -37 914 -20 626 53 1193 264 1682 626 46 33 47 36 20 31 -379 -74 -921
-71 -1392 9 -527 90 -926 211 -1983 605 -278 103 -608 225 -734 270 -1444 514
-2314 676 -3601 668 -176 -1 -349 -3 -385 -5z"/>
<path d="M6600 8906 c-232 -49 -404 -201 -466 -411 -26 -88 -24 -240 4 -330
56 -184 213 -329 417 -386 102 -29 286 -31 385 -6 112 29 205 82 284 161 118
117 166 234 166 401 0 172 -45 281 -165 400 -86 86 -161 131 -270 160 -81 23
-272 28 -355 11z"/>
<path d="M14789 7713 l0 -818 -32 40 c-64 81 -204 213 -281 265 -247 166 -517
239 -841 227 -396 -15 -710 -151 -986 -426 -289 -290 -458 -681 -500 -1161
-14 -159 -7 -428 16 -580 83 -559 364 -1011 786 -1261 401 -238 961 -262 1368
-59 169 85 345 234 426 362 17 26 33 47 38 48 4 0 7 -112 7 -250 l0 -250 535
0 535 0 0 2340 0 2340 -535 0 -535 0 -1 -817z m-606 -1239 c40 -9 115 -36 167
-61 82 -40 108 -59 191 -142 86 -86 102 -108 147 -201 57 -119 77 -191 93
-339 21 -197 -18 -431 -97 -582 -96 -183 -279 -332 -469 -383 -143 -39 -336
-29 -476 23 -177 67 -358 248 -432 434 -15 36 -36 112 -48 169 -28 136 -23
388 10 513 74 282 281 494 552 565 94 24 261 26 362 4z"/>
<path d="M29580 6190 l0 -2340 285 0 284 0 4 1073 3 1072 26 115 c68 306 203
506 433 645 214 128 547 166 831 95 106 -26 265 -107 341 -173 158 -135 248
-297 305 -545 22 -96 22 -103 25 -1189 l4 -1093 279 0 280 0 0 1104 c0 1214
-1 1228 -61 1454 -136 515 -495 844 -1034 949 -123 24 -442 24 -570 0 -343
-63 -625 -222 -802 -454 l-58 -76 -3 852 -2 851 -285 0 -285 0 0 -2340z"/>
<path d="M400 6070 l0 -2220 540 0 540 0 1 1333 c0 905 3 1327 10 1317 6 -8
232 -607 503 -1330 l492 -1315 436 -3 c343 -2 437 0 441 10 2 7 224 603 492
1323 268 721 492 1314 496 1319 5 6 9 -587 9 -1322 l0 -1332 535 0 535 0 0
2220 0 2220 -633 0 -633 0 -614 -1531 c-338 -842 -617 -1532 -620 -1534 -3 -1
-284 686 -626 1529 l-620 1531 -642 3 -642 2 0 -2220z"/>
<path d="M17840 6055 l0 -2205 285 0 285 0 0 1000 0 1000 1130 0 1130 0 0
-1000 0 -1000 285 0 285 0 0 2205 0 2205 -285 0 -285 0 -2 -967 -3 -968 -1127
-3 -1128 -2 0 970 0 970 -285 0 -285 0 0 -2205z"/>
<path d="M10054 7410 c-204 -26 -399 -92 -554 -188 -95 -58 -257 -202 -301
-267 -13 -19 -27 -35 -31 -35 -5 0 -8 104 -8 230 l0 230 -535 0 -535 0 0
-1765 0 -1765 535 0 535 0 0 978 c0 968 3 1083 35 1207 57 224 220 394 440
457 104 29 304 31 405 4 220 -60 379 -221 452 -458 l23 -73 3 -1057 3 -1058
535 0 535 0 -3 1173 c-3 1169 -3 1172 -26 1285 -88 440 -298 754 -637 946
-176 101 -387 154 -640 161 -88 2 -192 0 -231 -5z"/>
<path d="M6220 5615 l0 -1765 535 0 535 0 0 1765 0 1765 -535 0 -535 0 0
-1765z"/>
<path d="M27145 7355 c-341 -56 -622 -199 -794 -407 -72 -86 -153 -244 -178
-343 -12 -50 -17 -111 -17 -210 0 -165 22 -272 80 -389 75 -152 244 -313 423
-405 174 -89 318 -137 870 -291 281 -78 471 -161 556 -241 78 -74 108 -140
113 -249 16 -329 -263 -540 -713 -540 -284 0 -492 76 -652 238 -74 74 -134
187 -153 285 l-12 67 -294 0 c-242 0 -294 -2 -294 -14 0 -7 7 -53 15 -102 71
-411 371 -728 825 -872 202 -64 299 -77 575 -77 271 1 353 12 531 71 499 166
785 572 725 1028 -26 195 -87 321 -221 457 -183 186 -366 270 -960 439 -416
118 -569 181 -697 288 -156 131 -196 339 -102 524 36 70 128 152 221 197 138
66 195 76 413 75 178 0 196 -2 280 -28 133 -41 199 -79 290 -171 110 -109 152
-194 180 -357 l6 -38 285 0 285 0 -5 33 c-3 17 -8 58 -11 89 -24 226 -137 451
-308 615 -169 161 -357 256 -622 313 -133 29 -502 37 -640 15z"/>
<path d="M22193 6178 c4 -1229 2 -1174 56 -1386 133 -514 525 -872 1056 -962
554 -94 1067 75 1345 442 l65 86 3 -254 2 -254 285 0 285 0 0 1735 0 1735
-285 0 -285 0 0 -1022 c0 -681 -4 -1053 -11 -1113 -26 -212 -113 -435 -222
-566 -137 -165 -342 -275 -576 -309 -120 -18 -373 -8 -475 19 -396 105 -632
409 -675 872 -7 72 -11 484 -11 1117 l0 1002 -280 0 -281 0 4 -1142z"/>
</g>
</svg>
