<?xml version="1.0" encoding="UTF-8"?>
<svg version="1.1" xmlns="http://www.w3.org/2000/svg" width="3315" height="5319">
<path d="M0 0 C42.47619941 -0.63618871 84.9193997 1.93285012 127.17773438 6.06640625 C128.09647339 6.15621765 129.0152124 6.24602905 129.96179199 6.33856201 C231.41074492 16.35321481 331.9942941 37.79313002 605.44091797 151.54199219 C608.3225044 153.14704354 611.21256895 154.73609539 614.10351562 156.32421875 C628.9653171 164.52480958 643.5042416 173.19214811 657.95654297 182.08691406 C660.85436912 183.86769127 663.75864496 185.6372119 666.66601562 187.40234375 C688.05027562 200.43760586 708.78684609 214.53393417 729.17773438 229.06640625 C730.35867676 229.90727783 730.35867676 229.90727783 731.56347656 230.76513672 C741.25372141 237.67909669 750.78298914 244.75671927 760.17773438 252.06640625 C761.74817866 253.26387001 763.31863145 254.46132312 764.88989258 255.65771484 C772.50747725 261.47055368 779.93921273 267.50418909 787.35302734 273.57373047 C788.95997133 274.88826827 790.57052628 276.19838927 792.18164062 277.5078125 C798.68471551 282.79925189 805.09975611 288.18894746 811.48193359 293.625 C813.18008283 295.06840241 814.8836363 296.50522048 816.58789062 297.94140625 C823.56384797 303.84330484 830.32745385 309.92682566 836.97827148 316.19311523 C840.14080821 319.17219564 843.31881307 322.10945135 846.61523438 324.94140625 C849.89366924 327.75958568 852.92545919 330.76940695 855.92773438 333.87890625 C857.84680496 335.74466932 859.80525252 337.48352736 861.83374023 339.22680664 C866.03189795 342.89064367 869.99876528 346.74253655 873.93164062 350.6875 C874.63618881 351.39109146 875.340737 352.09468292 876.06663513 352.81959534 C877.54426804 354.29655273 879.02065894 355.77475367 880.49584961 357.25415039 C882.73439919 359.4980571 884.9782391 361.73657329 887.22265625 363.97460938 C888.66763841 365.42025243 890.11231029 366.8662057 891.55664062 368.3125 C892.21724991 368.97108505 892.87785919 369.6296701 893.55848694 370.30821228 C897.43219331 374.20116803 901.12109338 378.20392618 904.70079041 382.36927795 C906.43829124 384.3658072 908.27408028 386.2283954 910.17773438 388.06640625 C913.34863436 391.19486589 916.30343398 394.43495977 919.20507812 397.8125 C921.14251224 400.02616235 923.12902625 402.18865647 925.12988281 404.3449707 C929.94212707 409.53291351 934.50237465 414.8464874 938.93945312 420.36328125 C941.22589142 423.1245645 943.61381655 425.75178847 946.05273438 428.37890625 C950.29394418 432.98720686 954.17251466 437.7821152 957.99926758 442.73144531 C961.14563595 446.78949203 964.39638383 450.73246025 967.74023438 454.62890625 C972.58559015 460.29766691 977.17341955 466.13797894 981.67285156 472.08447266 C983.40831222 474.37007772 985.15598874 476.64608285 986.90429688 478.921875 C995.00402693 489.48085457 1002.95949351 500.12471594 1010.67919922 510.96484375 C1012.0956015 512.95122219 1013.52054956 514.93117942 1014.94726562 516.91015625 C1033.96381018 543.42476752 1051.60862922 570.96684185 1068.17773438 599.06640625 C1068.74331055 600.02337402 1069.30888672 600.9803418 1069.89160156 601.96630859 C1080.19970074 619.46064166 1089.87248065 637.25458279 1099.24084473 655.26550293 C1100.10448993 656.92561467 1100.97058874 658.58444936 1101.83691406 660.24316406 C1111.11063821 678.08183061 1119.22043043 696.4403801 1127.2253418 714.87384033 C1128.13132583 716.95956608 1129.04012476 719.04404636 1129.94921875 721.12841797 C1163.67576424 798.64076031 1184.65014759 881.04078482 1220.16759872 1086.68964767 C1224.29537009 1116.25078616 1228.45275917 1145.76302029 1234.17773438 1175.06640625 C1234.33268372 1175.86808228 1234.48763306 1176.6697583 1234.64727783 1177.49572754 C1245.50978651 1233.65557954 1261.47288179 1287.79842321 1287.17773438 1339.06640625 C1287.6040918 1339.92169922 1288.03044922 1340.77699219 1288.46972656 1341.65820312 C1307.48469845 1379.56751267 1333.73819428 1412.82329518 1362.17773438 1444.06640625 C1362.95600586 1444.92951416 1363.73427734 1445.79262207 1364.53613281 1446.68188477 C1371.19969198 1454.02766547 1378.0784971 1461.12299038 1385.10375977 1468.12280273 C1386.87764441 1469.89127844 1388.64605214 1471.66510669 1390.4140625 1473.43945312 C1396.16766287 1479.19642114 1401.96641387 1484.79924407 1408.17773438 1490.06640625 C1409.7854181 1491.52086142 1411.39013152 1492.9786152 1412.99023438 1494.44140625 C1422.07451189 1502.62693485 1431.70699542 1510.17135149 1441.36816406 1517.66015625 C1442.52567614 1518.55967994 1443.68027309 1519.46297549 1444.83105469 1520.37109375 C1465.55868763 1536.70570598 1488.1499793 1551.06624181 1510.93066406 1564.34838867 C1528.77413567 1574.8820119 1543.96258312 1588.99849419 1554.17773438 1607.06640625 C1554.66628906 1607.90429688 1555.15484375 1608.7421875 1555.65820312 1609.60546875 C1569.73145429 1635.50025089 1570.37260111 1668.77629595 1562.30273438 1696.60546875 C1552.3935275 1727.09004269 1530.41574983 1745.40421596 1503.17773438 1760.06640625 C1478.98988598 1773.10408928 1455.33288685 1785.92893827 1436.17773438 1806.06640625 C1435.18 1807.08927734 1435.18 1807.08927734 1434.16210938 1808.1328125 C1418.75570607 1824.45626362 1410.41177476 1844.6687414 1410.17773438 1867.06640625 C1411.81562563 1895.85082857 1428.03613943 1919.60519133 1448.17773438 1939.06640625 C1450.85941707 1941.41378704 1453.59439287 1943.63976011 1456.40039062 1945.8359375 C1469.56845276 1956.41113227 1481.88455861 1968.70965538 1492.17773438 1982.06640625 C1492.74572754 1982.80101074 1493.3137207 1983.53561523 1493.89892578 1984.29248047 C1521.63093535 2020.31188799 1521.63093535 2020.31188799 1520.17773438 2039.06640625 C1517.70409879 2053.49972946 1507.76924226 2064.13518564 1496.36523438 2072.50390625 C1491.04119702 2076.23576035 1485.42539568 2078.82859151 1479.49023438 2081.44140625 C1471.84244699 2084.88847518 1466.53281464 2088.51836995 1461.44677734 2095.37060547 C1459.96560638 2097.34986933 1458.41948743 2099.26978967 1456.86914062 2101.1953125 C1448.26770343 2111.8714897 1448.26770343 2111.8714897 1442.17773438 2124.06640625 C1441.90316406 2124.80890625 1441.62859375 2125.55140625 1441.34570312 2126.31640625 C1439.52172133 2132.46034492 1440.47120278 2137.32580102 1443.17773438 2143.06640625 C1451.89687025 2157.91020343 1465.07483977 2166.47821053 1480.05273438 2174.0234375 C1490.616379 2179.38615139 1500.47854674 2185.17152981 1505.40039062 2196.5390625 C1508.35811366 2206.1553781 1505.11810539 2215.42207596 1500.62304688 2224.05078125 C1493.20315087 2236.59772985 1484.07095098 2248.19760955 1475.015625 2259.59179688 C1436.76298299 2307.87648867 1425.45885548 2351.42535252 1429.23974609 2412.05981445 C1429.42778356 2415.1297092 1429.59407338 2418.20031256 1429.75976562 2421.27148438 C1430.5123346 2434.16537058 1432.21878371 2446.49635654 1435.17773438 2459.06640625 C1435.43719849 2460.174431 1435.43719849 2460.174431 1435.7019043 2461.30484009 C1437.02141605 2466.88728795 1438.41516434 2472.45046225 1439.82861328 2478.00976562 C1448.86124671 2513.66976215 1445.33740755 2545.0089893 1427.49414062 2577.09375 C1422.98119537 2584.63697025 1417.24699556 2590.77596207 1411.17773438 2597.06640625 C1410.5203125 2597.78699219 1409.86289063 2598.50757812 1409.18554688 2599.25 C1392.16090146 2617.40718621 1367.62928173 2627.42713642 1344.17773438 2634.06640625 C1343.03280518 2634.3924585 1343.03280518 2634.3924585 1341.86474609 2634.72509766 C1313.10962528 2642.55540929 1281.16112618 2643.008188 1251.55273438 2643.69140625 C1250.59853607 2643.7135318 1249.64433777 2643.73565735 1248.66122437 2643.75845337 C1226.18181849 2644.25474559 1203.74451494 2643.91274029 1181.29882812 2642.55078125 C1134.35793959 2639.74801681 1086.34156525 2639.05981185 1039.44476318 2642.8828125 C1037.0002753 2643.08077765 1034.55515138 2643.26921987 1032.10986328 2643.45703125 C947.87073004 2650.00599247 864.55327651 2665.91735343 784.17773438 2692.06640625 C783.42661377 2692.31026062 782.67549316 2692.55411499 781.90161133 2692.80535889 C720.43029902 2712.80901245 660.56283673 2739.67470368 605.17773438 2773.06640625 C603.63835205 2773.98776367 603.63835205 2773.98776367 602.06787109 2774.92773438 C565.54961889 2796.82857762 530.73854357 2821.57218392 497.88671875 2848.66162109 C496.29785115 2849.96767026 494.69911385 2851.26168706 493.09960938 2852.5546875 C487.81943017 2856.82455309 482.72776369 2861.23864574 477.71289062 2865.81640625 C475.07757406 2868.15530046 472.36496145 2870.36356508 469.61523438 2872.56640625 C465.3057565 2876.05040667 461.36895718 2879.72608901 457.54101562 2883.73046875 C455.62338356 2885.62591334 453.68437458 2887.36420628 451.63769531 2889.11303711 C446.69989645 2893.41991845 442.08110815 2898.0192735 437.45507812 2902.65625 C436.55076553 2903.55960587 435.64645294 2904.46296173 434.71473694 2905.39369202 C432.81338494 2907.29436693 430.91305885 2909.19600233 429.0144043 2911.09936523 C426.60187577 2913.51759017 424.18488356 2915.93129583 421.76651669 2918.34368038 C419.43108862 2920.67459026 417.09951261 2923.00934581 414.76757812 2925.34375 C413.91010483 2926.19919907 413.05263153 2927.05464813 412.16917419 2927.9360199 C407.84198003 2932.27996011 403.65235153 2936.68378347 399.66404724 2941.34197998 C397.2905778 2944.09568894 394.78940233 2946.72785469 392.30273438 2949.37890625 C387.85985558 2954.15398227 383.6545053 2959.05460358 379.57226562 2964.14453125 C377.29664608 2966.92130681 374.95495516 2969.61966603 372.58178711 2972.3125 C365.60140776 2980.24179881 359.14021674 2988.47732265 352.79833984 2996.92236328 C351.20232408 2999.03387434 349.58685493 3001.1286798 347.96289062 3003.21875 C322.02156257 3036.64724133 299.34889561 3072.73841866 279.69433594 3110.18896484 C278.32901168 3112.7793885 276.94316927 3115.35693375 275.54492188 3117.9296875 C235.72647545 3191.5428249 210.66032765 3274.31283756 184.17773438 3443.06640625 C184.11578384 3444.01336868 184.11578384 3444.01336868 184.05258179 3444.97946167 C183.14044045 3459.07062105 182.97639155 3473.13614588 182.99023438 3487.25390625 C182.99083862 3488.39836212 182.99144287 3489.54281799 182.99206543 3490.72195435 C183.018527 3509.25263752 183.48254591 3527.60354206 185.17773438 3546.06640625 C185.30263396 3547.47492937 185.42746918 3548.8834582 185.55224609 3550.29199219 C189.1049934 3589.724111 196.02347039 3628.56692421 205.17773438 3667.06640625 C205.4304007 3668.13027557 205.4304007 3668.13027557 205.68817139 3669.21563721 C222.71165009 3740.56165401 248.74416889 3811.27195607 284.63037109 3875.30419922 C286.22947102 3878.15876164 287.81511684 3881.02055231 289.40039062 3883.8828125 C296.26147793 3896.21206543 303.45480851 3908.25832826 311.17773438 3920.06640625 C312.10440918 3921.48421387 312.10440918 3921.48421387 313.04980469 3922.93066406 C334.71968643 3955.97536286 358.48493793 3987.46337511 385.06054688 4016.734375 C386.43764279 4018.25121312 387.80784221 4019.77435093 389.16992188 4021.3046875 C401.86797792 4035.5600523 414.81473614 4050.04921263 429.34960938 4062.45703125 C431.20711426 4064.09227059 432.94379447 4065.80122418 434.67773438 4067.56640625 C437.66645774 4070.6023555 440.79479916 4073.41149284 444.02148438 4076.19140625 C446.37736395 4078.23999719 448.68280898 4080.33843627 450.99023438 4082.44140625 C455.25597447 4086.29224153 459.6556736 4089.93374449 464.12304688 4093.546875 C467.71813307 4096.51213152 471.22996207 4099.56421573 474.74023438 4102.62890625 C479.56890927 4106.83747257 484.43790503 4110.95739889 489.47070312 4114.921875 C492.98508031 4117.70599199 496.45394152 4120.54442906 499.92773438 4123.37890625 C505.53504291 4127.94719226 511.1871778 4132.45042197 516.88769531 4136.90161133 C522.05233574 4140.94442412 527.13551934 4145.08367904 532.21679688 4149.23046875 C536.50225371 4152.72170965 540.82113064 4156.16446158 545.17773438 4159.56640625 C552.31926656 4165.14582417 559.35082562 4170.85657234 566.36914062 4176.58984375 C567.97008917 4177.89688166 569.57371414 4179.20063981 571.17773438 4180.50390625 C576.61831047 4184.93228215 581.99229434 4189.4322629 587.3359375 4193.9765625 C590.81053706 4196.92646035 594.32249132 4199.82323345 597.86523438 4202.69140625 C603.13183348 4206.97439052 608.17679707 4211.47769371 613.17773438 4216.06640625 C612.84773438 4216.72640625 612.51773438 4217.38640625 612.17773438 4218.06640625 C606.25550852 4216.23120869 600.33746579 4214.38322037 594.42260742 4212.52441406 C592.4194183 4211.89672788 590.41521781 4211.27225821 588.40991211 4210.65136719 C570.7288972 4205.17286771 553.87985627 4198.56041667 537.24023438 4190.44140625 C535.69178833 4189.69117187 535.69178833 4189.69117187 534.11206055 4188.92578125 C530.79659646 4187.3140732 527.48639495 4185.69203214 524.17773438 4184.06640625 C523.02466797 4183.50083008 521.87160156 4182.93525391 520.68359375 4182.35253906 C505.92216002 4175.09354925 491.31610271 4167.61534043 476.94677734 4159.60693359 C474.05136562 4157.99610235 471.14811926 4156.40001634 468.24414062 4154.8046875 C453.28818406 4146.55046288 438.68070421 4137.79506384 424.12353516 4128.86523438 C421.15273858 4127.05114278 418.1666589 4125.26623344 415.16943359 4123.49633789 C397.03590991 4112.77915648 379.438375 4101.13075047 362.17773438 4089.06640625 C361.46214355 4088.56689453 360.74655273 4088.06738281 360.00927734 4087.55273438 C355.04707374 4084.08291435 350.10755802 4080.58203848 345.17773438 4077.06640625 C344.4682666 4076.56173828 343.75879883 4076.05707031 343.02783203 4075.53710938 C322.78872853 4061.12021373 302.99269952 4046.03308672 283.81054688 4030.234375 C282.06043911 4028.79326252 280.30523826 4027.35831222 278.54492188 4025.9296875 C272.19891203 4020.77702353 265.97029242 4015.50075106 259.77929688 4010.1640625 C257.42990461 4008.13896506 255.07098297 4006.12615895 252.70117188 4004.125 C245.14890542 3997.73322715 237.85896188 3991.11287353 230.65820312 3984.328125 C227.72648087 3981.5686225 224.74829028 3978.86779289 221.74023438 3976.19140625 C218.14113583 3972.97898771 214.70620539 3969.65583473 211.35742188 3966.18359375 C209.53585024 3964.41425356 207.68212904 3962.77911669 205.75195312 3961.1328125 C200.19787733 3956.30541421 195.04152839 3951.07968634 189.8503418 3945.86938477 C188.11878738 3944.13247025 186.38195079 3942.40096736 184.64453125 3940.66992188 C179.44524223 3935.47342622 174.33590989 3930.26638522 169.56274414 3924.66967773 C167.70755933 3922.52213699 165.71381968 3920.54171289 163.67773438 3918.56640625 C160.35003974 3915.27786097 157.22436996 3911.90259001 154.18164062 3908.3515625 C152.12092656 3906.00162541 150.0029925 3903.71607499 147.86987305 3901.43212891 C142.81943232 3896.0236962 138.01428501 3890.50949004 133.38085938 3884.734375 C131.1084562 3881.98251087 128.73078607 3879.36902482 126.30273438 3876.75390625 C122.05976399 3872.14369268 118.17896775 3867.34713667 114.35180664 3862.39477539 C111.25263879 3858.39600685 108.04420202 3854.52194744 104.74023438 3850.69140625 C100.21154363 3845.41491001 96.00504382 3839.94590191 91.86938477 3834.35766602 C88.62994206 3829.98460003 85.32417881 3825.67375307 81.96020508 3821.39575195 C75.26936714 3812.88672165 68.90694316 3804.20774305 62.74023438 3795.31298828 C61.08340756 3792.93078198 59.41323991 3790.55836917 57.74023438 3788.1875 C50.03970404 3777.26349185 42.51191509 3766.23965122 35.17773438 3755.06640625 C34.49614258 3754.0295166 34.49614258 3754.0295166 33.80078125 3752.97167969 C15.0635889 3724.40757134 -2.38824102 3695.01038351 -18.82226562 3665.06640625 C-19.67691406 3663.51373047 -19.67691406 3663.51373047 -20.54882812 3661.9296875 C-38.22063181 3629.71628752 -54.53365977 3596.81007025 -69.08789062 3563.07324219 C-70.68415689 3559.37552012 -72.31268013 3555.69267955 -73.94726562 3552.01171875 C-105.17561156 3481.19185082 -127.85106999 3405.22831083 -139.61523438 3328.71875 C-139.7407411 3327.9048518 -139.86624783 3327.0909536 -139.99555779 3326.25239182 C-143.27279647 3304.87574425 -145.92461941 3283.41927319 -148.55444336 3261.95507812 C-149.24148325 3256.34762316 -149.93839316 3250.7414478 -150.63805199 3245.13555527 C-153.5221062 3221.9973435 -156.24490625 3198.84924746 -158.61523438 3175.65234375 C-158.71653719 3174.66588993 -158.81784 3173.67943611 -158.9222126 3172.66308975 C-162.17001367 3140.86748806 -164.28914376 3109.02490096 -164.82226562 3077.06640625 C-164.84716064 3075.7829834 -164.84716064 3075.7829834 -164.87255859 3074.47363281 C-164.96316936 3069.33454803 -164.92020903 3064.20510704 -164.82226562 3059.06640625 C-164.80437988 3057.98166016 -164.78649414 3056.89691406 -164.76806641 3055.77929688 C-163.03331103 2959.8992404 -149.08619583 2864.87872189 -47.82226562 2561.06640625 C-47.32339844 2560.01227539 -46.82453125 2558.95814453 -46.31054688 2557.87207031 C-42.85422748 2550.58403437 -39.35218591 2543.31904759 -35.82226562 2536.06640625 C-35.3649707 2535.12313477 -34.90767578 2534.17986328 -34.43652344 2533.20800781 C-28.38346428 2520.75761904 -21.88048099 2508.64150956 -14.99414062 2496.6328125 C-12.55495882 2492.37595709 -10.19055799 2488.08573581 -7.86254883 2483.76733398 C6.96142701 2456.32685042 23.84139909 2429.61109449 41.75439453 2404.09765625 C43.33447851 2401.8427165 44.90283209 2399.57985339 46.47070312 2397.31640625 C57.62133577 2381.25437138 69.14747077 2365.48139033 81.17773438 2350.06640625 C81.62213867 2349.49583496 82.06654297 2348.92526367 82.52441406 2348.33740234 C87.93866128 2341.3905708 93.41008083 2334.49812807 99.00976562 2327.69921875 C100.4508781 2325.94911099 101.88582841 2324.19391013 103.31445312 2322.43359375 C108.96751653 2315.47129304 114.77921735 2308.65715046 120.63378906 2301.86474609 C122.14809523 2300.10092901 123.6527082 2298.32933735 125.15429688 2296.5546875 C130.8350156 2289.85380012 136.65180144 2283.31902577 142.66040039 2276.90991211 C145.51647275 2273.86294322 148.32670441 2270.79402829 151.05273438 2267.62890625 C153.6823317 2264.57831428 156.47066643 2261.74999266 159.34532166 2258.93125916 C161.07347694 2257.17250941 162.67351503 2255.36091569 164.26977539 2253.48266602 C168.69175472 2248.40016804 173.43779769 2243.66282266 178.20507812 2238.90625 C179.16254462 2237.94810765 180.11986282 2236.98981709 181.07704163 2236.03138733 C183.07147184 2234.03549338 185.06767178 2232.04139173 187.06518555 2230.04858398 C189.60447836 2227.51498762 192.1392534 2224.97692642 194.67270565 2222.43749142 C196.64505622 2220.46149922 198.619817 2218.48792946 200.59527779 2216.51504707 C201.97900065 2215.13230026 203.36073752 2213.74756695 204.74241638 2212.36277771 C209.22280641 2207.89885342 213.75614217 2203.56815259 218.56520081 2199.45875549 C220.53838418 2197.75500158 222.36746562 2195.94132746 224.17773438 2194.06640625 C227.3028194 2190.89892666 230.54015326 2187.94755378 233.91210938 2185.046875 C236.7109023 2182.60034394 239.44445143 2180.08544742 242.17773438 2177.56640625 C250.11264167 2170.26844737 258.27355894 2163.25058549 266.46679688 2156.24609375 C268.88594817 2154.17669927 271.29712171 2152.09863318 273.70117188 2150.01171875 C280.01042654 2144.54611776 286.40737386 2139.25076075 293.00463867 2134.13598633 C296.92401282 2131.0864914 300.72692641 2127.93078324 304.49023438 2124.69140625 C310.07803446 2119.89547628 315.87272951 2115.41340909 321.74389648 2110.97094727 C326.41273663 2107.43369409 331.00337731 2103.81812171 335.55273438 2100.12890625 C343.41951964 2093.77561065 351.56130791 2087.81508518 359.72949219 2081.85742188 C362.16408995 2080.07638785 364.59025628 2078.28449451 367.01367188 2076.48828125 C376.60029727 2069.38440355 386.2614454 2062.40518775 396.03955078 2055.56738281 C398.13783088 2054.09441797 400.22702396 2052.60938518 402.31445312 2051.12109375 C436.56610227 2026.79756962 471.93018984 2003.6921373 507.69726562 1981.6640625 C540.92508814 1961.14785267 572.77368234 1938.57916737 603.17773438 1914.06640625 C604.60859375 1912.91398437 604.60859375 1912.91398437 606.06835938 1911.73828125 C617.57062355 1902.36888725 628.73421861 1892.68502098 639.57324219 1882.55761719 C641.1695473 1881.0740153 642.77689475 1879.60348492 644.38867188 1878.13671875 C654.46306058 1868.95461126 664.53423563 1859.59395023 673.34960938 1849.17578125 C675.33932868 1846.87995128 677.40021032 1844.66320334 679.47436523 1842.44384766 C685.31623887 1836.18902178 690.85785992 1829.7760749 696.17773438 1823.06640625 C697.01361122 1822.02338889 697.84955121 1820.98042213 698.68554688 1819.9375 C754.29890984 1750.20761003 789.22323888 1666.98724949 836.86523438 1430.12890625 C836.92617279 1429.32212433 836.98711121 1428.51534241 837.04989624 1427.68411255 C837.40399129 1422.93127132 837.73070145 1418.17732129 838.02957153 1413.42068481 C838.12584445 1411.89092703 838.22502583 1410.36134851 838.3276062 1408.83200073 C839.48596937 1391.19448221 839.36511079 1373.51965647 839.36303711 1355.8527832 C839.36295646 1352.31366802 839.36981414 1348.77468399 839.38354492 1345.2355957 C839.47556443 1321.10798886 838.87702238 1297.13659706 837.17773438 1273.06640625 C837.06771591 1271.5057695 837.06771591 1271.5057695 836.95547485 1269.91360474 C836.54127905 1264.22755594 836.04771391 1258.55259243 835.49023438 1252.87890625 C835.40914429 1252.03907196 835.3280542 1251.19923767 835.24450684 1250.33395386 C830.19030026 1198.6021379 821.05421228 1147.4084141 808.17773438 1097.06640625 C807.88636597 1095.92480042 807.88636597 1095.92480042 807.58911133 1094.76013184 C797.42722252 1055.10973087 784.55591077 1015.99684879 769.17773438 978.06640625 C768.78742035 977.10072723 768.78742035 977.10072723 768.38922119 976.11553955 C751.42374448 934.19074566 732.52290718 892.61182527 709.63378906 853.56835938 C708.14689231 851.01341003 706.69337303 848.4419511 705.24804688 845.86328125 C684.57216306 809.0343632 660.7243934 773.84922427 634.97119141 740.39892578 C633.43880746 738.40595052 631.91319871 736.40820177 630.39257812 734.40625 C620.82847785 721.85628427 610.80663436 709.6742058 600.5546875 697.68164062 C599.13652092 696.01806082 597.72698121 694.34744749 596.31835938 692.67578125 C590.50232944 685.79912422 584.52352148 679.11273512 578.33666992 672.56689453 C575.17994925 669.2263648 572.08247599 665.84474664 569.02832031 662.40991211 C564.51394563 657.38859364 559.82876773 652.57224664 555.04882812 647.8046875 C554.21489029 646.96979294 553.38095245 646.13489838 552.52174377 645.27470398 C550.77426811 643.52655344 549.02555165 641.7796424 547.27563477 640.03393555 C544.6148941 637.37856666 541.95955507 634.71788008 539.3046875 632.05664062 C537.59472167 630.34733544 535.88444575 628.63834039 534.17382812 626.9296875 C533.39027451 626.14410965 532.60672089 625.3585318 531.79942322 624.54914856 C527.64051884 620.40769667 523.40588781 616.41965942 518.94906616 612.59962463 C516.00565504 610.05188509 513.19641834 607.36230366 510.36523438 604.69140625 C505.31862493 599.96444249 500.14439289 595.49131482 494.74414062 591.16796875 C492.20214074 589.08639198 489.78244102 586.91602245 487.36523438 584.69140625 C482.90573484 580.62767846 478.2424971 576.90756648 473.4777832 573.21435547 C469.76151909 570.32909139 466.13549304 567.36782359 462.55273438 564.31640625 C454.83427317 557.83289884 446.70810059 551.8911209 438.6171875 545.88427734 C436.41538869 544.24350533 434.22352548 542.59087217 432.03710938 540.9296875 C394.26119102 512.25280107 353.85263714 486.68190981 312.17773438 464.06640625 C311.2104541 463.53837402 310.24317383 463.0103418 309.24658203 462.46630859 C234.17240696 421.50521046 154.03321052 390.9675665 -113.82226562 347.06640625 C-115.39476074 346.98181152 -115.39476074 346.98181152 -116.99902344 346.89550781 C-211.56159361 341.83019106 -307.28587857 351.30796002 -565.82226562 432.06640625 C-567.25405801 432.72268025 -568.68586153 433.37892996 -570.11767578 434.03515625 C-598.00050784 446.84047878 -625.30386322 460.60710294 -651.82226562 476.06640625 C-652.42165955 476.41529907 -653.02105347 476.76419189 -653.63861084 477.12365723 C-671.69009223 487.63648108 -689.44888325 498.45763865 -706.82226562 510.06640625 C-707.99218793 510.8395271 -709.16267165 511.61179982 -710.33398438 512.3828125 C-713.17522669 514.26053606 -716.00231838 516.15686605 -718.82226562 518.06640625 C-719.39895996 518.45683105 -719.9756543 518.84725586 -720.56982422 519.24951172 C-737.89524503 531.00428805 -754.70228758 543.39417123 -771.30761719 556.14257812 C-773.6773617 557.95554771 -776.05608095 559.75578154 -778.43945312 561.55078125 C-786.39509209 567.55497015 -794.10151206 573.74405194 -801.61523438 580.29296875 C-804.5264262 582.8275409 -807.50460864 585.26857813 -810.50976562 587.69140625 C-815.25491517 591.54335118 -819.77714704 595.59827814 -824.27539062 599.734375 C-826.41168311 601.69045877 -828.5700722 603.60828322 -830.75976562 605.50390625 C-835.62775246 609.74249681 -840.37842149 614.10785085 -845.11669922 618.49023438 C-846.26125699 619.54795911 -847.40743932 620.60392843 -848.55517578 621.65820312 C-857.52896555 629.90849796 -866.255593 638.39554422 -874.88476562 647.00390625 C-875.62419907 647.7394574 -875.62419907 647.7394574 -876.37857056 648.48986816 C-881.54101279 653.63087338 -886.61957685 658.80252413 -891.33374023 664.36352539 C-892.92316985 666.18184121 -894.59822584 667.87588456 -896.32226562 669.56640625 C-899.35821487 672.55512962 -902.16735221 675.68347104 -904.94726562 678.91015625 C-906.99585656 681.26603583 -909.09429564 683.57148085 -911.19726562 685.87890625 C-915.0757729 690.17600452 -918.75092531 694.60399379 -922.38867188 699.10546875 C-924.57379758 701.76409681 -926.80626313 704.36689015 -929.06665039 706.9609375 C-935.16791963 713.97339029 -940.86704966 721.22754838 -946.46679688 728.64453125 C-949.3032333 732.39978981 -952.1972253 736.10620209 -955.10742188 739.80444336 C-961.73734479 748.24211311 -968.04782568 756.84782175 -974.15625 765.66894531 C-976.01821565 768.34838592 -977.89622608 771.01618905 -979.77539062 773.68359375 C-986.99179093 783.95089897 -994.03089485 794.26155884 -1000.54882812 804.98632812 C-1001.94607161 807.26863535 -1003.36667949 809.53528742 -1004.79101562 811.80078125 C-1054.24926278 890.6341375 -1093.2345953 977.59053741 -1123.82226562 1090.06640625 C-1123.98321716 1090.76219788 -1124.1441687 1091.4579895 -1124.30999756 1092.17486572 C-1128.59930774 1110.76048583 -1132.20849082 1129.43126667 -1135.12304688 1148.28125 C-1135.26975201 1149.2245775 -1135.41645714 1150.16790501 -1135.56760788 1151.13981819 C-1139.41082298 1175.97695757 -1142.4529417 1200.91559064 -1145.50134277 1225.86029053 C-1146.68600751 1235.5401332 -1147.88448005 1245.21828409 -1149.08044243 1254.89673615 C-1149.51335295 1258.4032764 -1149.94497526 1261.90997354 -1150.3764801 1265.41668701 C-1152.25607585 1280.66345479 -1154.20709746 1295.89933203 -1156.27920532 1311.12120056 C-1157.894793 1323.07437829 -1159.0175501 1335.03170539 -1159.82226562 1347.06640625 C-1163.45226563 1347.39640625 -1167.08226562 1347.72640625 -1170.82226562 1348.06640625 C-1171.63663431 1346.29643151 -1172.44869503 1344.52539473 -1173.25976562 1342.75390625 C-1173.93845703 1341.27470703 -1173.93845703 1341.27470703 -1174.63085938 1339.765625 C-1176.35828907 1335.85200559 -1176.94617006 1332.98238886 -1176.93530273 1328.73730469 C-1176.93438126 1327.65692932 -1176.93345978 1326.57655396 -1176.93251038 1325.46343994 C-1176.92577805 1324.29601257 -1176.91904572 1323.12858521 -1176.91210938 1321.92578125 C-1176.90831772 1320.7108197 -1176.90452606 1319.49585815 -1176.90061951 1318.24407959 C-1176.85339978 1307.38627634 -1176.6726396 1296.53251394 -1176.4524231 1285.67706299 C-1176.053821 1265.87784761 -1175.77623079 1246.07977181 -1175.60351562 1226.27734375 C-1175.58579275 1224.26109303 -1175.56805687 1222.24484242 -1175.55030823 1220.22859192 C-1175.54143806 1219.22088084 -1175.53256788 1218.21316977 -1175.52342892 1217.17492199 C-1174.68741051 1122.40006424 -1172.36517362 1028.40425208 -1077.69213867 707.97613525 C-1076.84665269 706.11994588 -1076.00484468 704.26213258 -1075.1640625 702.40380859 C-1063.09329237 675.78724713 -1050.17058358 649.53358691 -1035.82226562 624.06640625 C-1034.91009277 622.443396 -1034.91009277 622.443396 -1033.97949219 620.78759766 C-1015.6862451 588.31230361 -996.08972426 556.68551336 -974.82226562 526.06640625 C-974.29681152 525.30924316 -973.77135742 524.55208008 -973.22998047 523.77197266 C-956.76764646 500.11166146 -939.48252897 476.97556514 -921.17089844 454.71484375 C-919.32223271 452.45521467 -917.50938243 450.1678959 -915.69726562 447.87890625 C-912.20406213 443.49585513 -908.59259638 439.22070758 -904.95849609 434.95458984 C-902.0284988 431.51045141 -899.1590247 428.02575025 -896.32226562 424.50390625 C-892.19536357 419.43033132 -887.82124005 414.62899483 -883.37695312 409.8359375 C-881.32112841 407.60722232 -879.30609606 405.35872706 -877.32226562 403.06640625 C-873.62331226 398.80780036 -869.8188752 394.64812293 -865.99267578 390.50390625 C-863.9903713 388.33495713 -861.99394619 386.16085949 -860.00170898 383.98266602 C-849.82128613 372.91218917 -839.19663663 362.28664546 -828.55224609 351.66601562 C-825.9469892 349.06650804 -823.34632297 346.46246081 -820.746912 343.85710907 C-818.71195049 341.8185124 -816.67458696 339.78232961 -814.63651657 337.74684143 C-813.21732406 336.32862235 -811.80011274 334.90842158 -810.38296509 333.48815918 C-805.90264362 329.02397493 -801.37862216 324.68047159 -796.56730652 320.57333374 C-793.45231055 317.88338356 -790.49626354 315.02214216 -787.50976562 312.19140625 C-782.31467878 307.30115295 -777.00873805 302.66210907 -771.43164062 298.20703125 C-768.63795047 295.9152016 -765.98017785 293.51408813 -763.32226562 291.06640625 C-758.51585842 286.65263513 -753.55116479 282.50280315 -748.47265625 278.40771484 C-746.57387762 276.86453588 -744.68970824 275.30449828 -742.80664062 273.7421875 C-734.89665735 267.18133269 -726.9394123 260.73018699 -718.74414062 254.52734375 C-716.47132325 252.79963298 -714.20938515 251.0580995 -711.94726562 249.31640625 C-701.74552964 241.47715776 -691.4440377 233.84275539 -680.87841797 226.50195312 C-678.7848218 225.04026404 -676.70252527 223.56372584 -674.62304688 222.08203125 C-664.49178541 214.86695545 -654.21611755 207.89724945 -643.82226562 201.06640625 C-643.15324219 200.62506348 -642.48421875 200.1837207 -641.79492188 199.72900391 C-612.36666916 180.34569191 -581.93954439 162.588437 -550.82226562 146.06640625 C-549.89945801 145.5760791 -548.97665039 145.08575195 -548.02587891 144.58056641 C-541.31668937 141.02613101 -534.57684648 137.5336946 -527.82226562 134.06640625 C-526.71737793 133.49696289 -525.61249023 132.92751953 -524.47412109 132.34082031 C-503.93370145 121.78831227 -483.03337626 112.19137368 -461.82226562 103.06640625 C-461.07571716 102.74522827 -460.3291687 102.42405029 -459.55999756 102.09313965 C-375.17481864 65.86096514 -287.19347722 38.73706923 0 0 Z " fill="#5A6986" transform="translate(1618.822265625,-0.06640625)"/>
<path d="M0 0 C2.83535826 1.32880005 5.67607217 2.64542957 8.51806641 3.95996094 C20.28184179 9.43652014 31.68853709 15.43770469 43.02197266 21.75292969 C46.14183679 23.48482277 49.27230849 25.19630835 52.40478516 26.90527344 C68.90234307 35.9383546 85.00921782 45.50712461 100.99853516 55.40527344 C102.05733887 56.06060059 103.11614258 56.71592773 104.20703125 57.39111328 C117.63012944 65.71507497 130.96721272 74.17363173 144.28076172 82.67138672 C149.76956195 86.17313477 155.2638489 89.66627236 160.7578125 93.15991211 C165.29494368 96.04575259 169.82940825 98.93559503 174.35791016 101.83496094 C197.28588437 116.50069596 220.50797204 130.6611465 243.99853516 144.40527344 C244.94067871 144.95699219 245.88282227 145.50871094 246.85351562 146.07714844 C259.37509018 153.38611159 272.1079443 160.20972967 285.00024414 166.84008789 C287.80581395 168.30466798 290.59070263 169.80412044 293.37348938 171.31141663 C301.3360567 175.61187358 309.42653724 179.51969012 317.68603516 183.21777344 C318.34207733 183.51320038 318.99811951 183.80862732 319.67404175 184.11300659 C334.81252789 190.91817244 350.1833922 197.34394824 365.88085938 202.75244141 C366.52526474 202.97596786 367.1696701 203.19949432 367.83360291 203.42979431 C369.6511325 204.05662223 371.47209068 204.67348256 373.29321289 205.28979492 C375.99853516 206.40527344 375.99853516 206.40527344 376.99853516 208.40527344 C343.42622595 220.05986174 311.9511961 227.64980283 276.12353516 227.59277344 C275.0552095 227.59186707 275.0552095 227.59186707 273.96530151 227.59094238 C189.23017795 227.39778168 111.69402375 195.24000286 38.1003418 156.13891602 C15.153605 143.98286631 -8.26402558 132.91832448 -32.00146484 122.40527344 C-32.7366333 122.07893921 -33.47180176 121.75260498 -34.22924805 121.41638184 C-92.73941677 95.4558603 -153.07676402 73.70247851 -215.00146484 57.40527344 C-215.67657104 57.22671814 -216.35167725 57.04816284 -217.04724121 56.86419678 C-266.21372968 43.87077159 -316.40712836 34.60608208 -367.00146484 29.40527344 C-368.30809082 29.26782715 -369.6147168 29.13038086 -370.9609375 28.98876953 C-457.97056311 19.94134654 -546.0923663 23.91238129 -973.11962891 159.70556641 C-975.81558919 161.29564396 -978.52540851 162.8575884 -981.24365234 164.40917969 C-1017.22638648 185.0744806 -1051.32798133 209.64325633 -1083.31445312 236.01806641 C-1084.83789643 237.27077333 -1086.3703312 238.51252603 -1087.90380859 239.75292969 C-1099.68416821 249.28446882 -1111.03019886 259.29445468 -1122.09594727 269.64331055 C-1123.55817823 270.99538241 -1125.0318973 272.33503895 -1126.51049805 273.66918945 C-1134.49578658 280.89813988 -1142.16282165 288.41251655 -1149.7668457 296.0402832 C-1151.82503641 298.10387405 -1153.88857464 300.16201019 -1155.95263672 302.21972656 C-1157.28824418 303.55599433 -1158.62354168 304.89257201 -1159.95849609 306.22949219 C-1160.5628096 306.83178146 -1161.16712311 307.43407074 -1161.78974915 308.05461121 C-1165.50402625 311.78902652 -1169.02834063 315.64537061 -1172.46833801 319.6340332 C-1174.55330638 322.04282274 -1176.71481776 324.37780867 -1178.87646484 326.71777344 C-1182.91548638 331.15158655 -1186.77653362 335.68581928 -1190.54052734 340.35449219 C-1192.3342672 342.57816017 -1194.14018868 344.78725822 -1195.96240234 346.98730469 C-1263.03640241 428.20875923 -1306.81838624 528.20867677 -1309.67599487 703.13043213 C-1307.67386863 723.92913924 -1304.68675257 744.59141975 -1301.64379883 765.25952148 C-1301.46987106 766.44182343 -1301.2959433 767.62412537 -1301.116745 768.84225464 C-1300.78660683 771.07815281 -1300.45412397 773.3137064 -1300.11897278 775.54885864 C-1299.97159164 776.54215179 -1299.82421051 777.53544495 -1299.67236328 778.55883789 C-1299.54230896 779.42636185 -1299.41225464 780.2938858 -1299.27825928 781.18769836 C-1299.00146484 783.40527344 -1299.00146484 783.40527344 -1299.00146484 786.40527344 C-1301.97146484 787.39527344 -1304.94146484 788.38527344 -1308.00146484 789.40527344 C-1316.74217762 773.60037193 -1325.1480673 757.64131783 -1333.37890625 741.56689453 C-1334.72637017 738.94130654 -1336.08480421 736.32208089 -1337.45068359 733.70605469 C-1379.70266716 652.17448867 -1381.41847857 546.10450168 -1352.48974609 439.98339844 C-1346.51230019 421.45068501 -1339.37652275 403.31551405 -1331.07666016 385.69970703 C-1329.9979917 383.39786186 -1328.94684612 381.08497866 -1327.89990234 378.76855469 C-1322.01830711 365.88512457 -1315.14359965 353.62696194 -1308.00146484 341.40527344 C-1307.47584961 340.50534668 -1306.95023438 339.60541992 -1306.40869141 338.67822266 C-1293.90620704 317.36592115 -1279.99604244 297.04230032 -1265.00146484 277.40527344 C-1264.23576172 276.39464844 -1263.47005859 275.38402344 -1262.68115234 274.34277344 C-1252.97593164 261.58114719 -1242.79113243 249.20124653 -1232.37402344 237.01611328 C-1230.96827916 235.3663266 -1229.57219376 233.70872599 -1228.17724609 232.04980469 C-1221.04885883 223.60592451 -1213.58980101 215.518251 -1205.98535156 207.50244141 C-1203.95273555 205.35376166 -1201.93086443 203.1954273 -1199.91162109 201.03417969 C-1179.72020277 179.43857927 -1179.72020277 179.43857927 -1169.86083984 171.04589844 C-1167.81845657 169.24379555 -1165.91244773 167.34588397 -1164.00146484 165.40527344 C-1160.85166455 162.21266032 -1157.58926996 159.23366064 -1154.18896484 156.31152344 C-1151.64635085 154.09581696 -1149.17036286 151.81428752 -1146.68896484 149.53027344 C-1142.20483556 145.44089556 -1137.59879247 141.55908323 -1132.87646484 137.74902344 C-1130.3081125 135.65525794 -1127.78151501 133.5238407 -1125.26464844 131.36914062 C-1118.99259866 126.0037806 -1112.56189867 120.88975684 -1105.97900391 115.91015625 C-1103.70350532 114.17852992 -1101.44233327 112.42899006 -1099.18115234 110.67871094 C-1089.17462511 102.95685156 -1079.03872341 95.54686626 -1068.55224609 88.49121094 C-1064.83570193 85.98824833 -1061.18340233 83.40752815 -1057.54516602 80.79248047 C-1048.99354962 74.65260427 -1040.1741734 69.11233363 -1031.14648438 63.70361328 C-1028.4992249 62.10127708 -1025.88469249 60.45092153 -1023.27172852 58.79345703 C-1004.65061713 46.99664835 -985.41197928 36.29343323 -965.94335938 25.97021484 C-963.32931429 24.57967302 -960.72422635 23.17425527 -958.12255859 21.76074219 C-945.48548231 14.93639467 -932.47474478 8.94226036 -919.41748047 2.97509766 C-916.32697923 1.55486303 -913.24807717 0.11314583 -910.17333984 -1.34082031 C-880.86281848 -15.13265445 -850.48202158 -26.67412982 -820.00146484 -37.59472656 C-819.29350769 -37.84847046 -818.58555054 -38.10221436 -817.85614014 -38.36364746 C-742.42991211 -65.33185253 -663.84104332 -84.53872294 0 0 Z " fill="#6B578B" transform="translate(1906.00146484375,968.5947265625)"/>
<path d="M0 0 C0.72926697 0.24171936 1.45853394 0.48343872 2.2098999 0.73248291 C78.2232518 26.01116016 149.97384868 62.79527432 214 111 C214.61697754 111.46245117 215.23395508 111.92490234 215.86962891 112.40136719 C223.0799663 117.816692 230.03593727 123.48754183 236.8828125 129.3515625 C239.7114441 131.76938975 242.59826885 134.10770426 245.5 136.4375 C251.3817169 141.2265322 256.89974202 146.36701126 262.43408203 151.54736328 C263.83619462 152.84804459 265.25863839 154.12672869 266.68359375 155.40234375 C273.96570807 161.92348241 280.89449249 168.78595552 287.8125 175.6875 C288.56270416 176.43382187 288.56270416 176.43382187 289.32806396 177.19522095 C294.55716658 182.40297985 299.69697368 187.64649663 304.49975586 193.25463867 C306.72231773 195.84033351 309.05103742 198.31755519 311.375 200.8125 C315.59274087 205.38297905 319.6095264 210.0693887 323.5078125 214.91796875 C325.37869084 217.23164118 327.26731879 219.52186579 329.1796875 221.80078125 C337.90294167 232.22128665 346.08908329 242.95157806 354 254 C354.58281738 254.8137207 355.16563477 255.62744141 355.76611328 256.46582031 C372.73504226 280.24948616 388.8790708 304.85672882 402.71240234 330.60986328 C403.60159277 332.26044618 404.49823263 333.90702999 405.40087891 335.55029297 C428.97730481 378.50740688 448.55032747 430.86659815 448.0625 480.625 C448.05347656 481.83414063 448.04445313 483.04328125 448.03515625 484.2890625 C448.02355469 485.18367188 448.01195313 486.07828125 448 487 C444.2834308 483.42330169 441.02345871 479.65100346 437.875 475.5625 C436.90108083 474.31116743 435.92712139 473.05986621 434.953125 471.80859375 C434.46134766 471.17421387 433.96957031 470.53983398 433.46289062 469.88623047 C422.87424779 456.23338425 412.094213 442.73609472 400.88500977 429.58618164 C398.01917257 426.22111717 395.2145827 422.81352447 392.4375 419.375 C388.56187067 414.61192782 384.48765711 410.06635751 380.33203125 405.546875 C378.37594748 403.41058251 376.45812303 401.25219343 374.5625 399.0625 C370.33418159 394.20485048 365.97193925 389.47126737 361.60406494 384.73950195 C360.57750749 383.62626854 359.55212518 382.51194962 358.52825928 381.39624023 C348.85619454 370.86225274 338.84459734 360.6892811 328.72070312 350.59033203 C326.1042936 347.97933645 323.49334454 345.3629644 320.8828125 342.74609375 C319.19563343 341.05957472 317.50814458 339.37336551 315.8203125 337.6875 C315.05244415 336.91760742 314.28457581 336.14771484 313.49343872 335.35449219 C309.37935598 331.25805291 305.1852716 327.31898513 300.7775116 323.53939819 C297.83257711 320.98896374 295.0207986 318.29791549 292.1875 315.625 C287.16311299 310.91846726 282.01016609 306.47141936 276.6328125 302.16796875 C273.89030846 299.90967537 271.2906241 297.54218666 268.6875 295.125 C264.1378142 290.94264011 259.42099518 287.09409072 254.53930664 283.31469727 C250.00537198 279.80394235 245.55730493 276.20041154 241.125 272.5625 C233.90110295 266.66137413 226.52119002 261.00409216 219.00683594 255.47851562 C217.08400142 254.06188718 215.17074758 252.63307647 213.2578125 251.203125 C190.43585935 234.30092738 166.43148127 218.47091885 142 204 C141.03078613 203.42556152 140.06157227 202.85112305 139.06298828 202.25927734 C65.63629879 158.94752292 -12.8745136 126.29240255 -233 81.75 C-233.76446442 81.67286774 -234.52892883 81.59573547 -235.31655884 81.51626587 C-241.20526712 80.93072118 -247.09902467 80.4440862 -253 80 C-254.14869568 79.91279694 -255.29739136 79.82559387 -256.480896 79.73574829 C-280.38238961 77.98306461 -304.22841908 77.63586186 -328.18797684 77.68194199 C-331.17193913 77.68758883 -334.15589572 77.69040535 -337.13986206 77.69302368 C-365.59811627 77.72930867 -393.91975575 78.09190415 -422.27453613 80.74676514 C-425.14808133 81.01375889 -428.02258422 81.26778702 -430.89746094 81.52001953 C-524.12699342 89.77726813 -616.25946966 108.0390409 -762 160 C-763.20172852 160.50321777 -764.40345703 161.00643555 -765.64160156 161.52490234 C-804.85058166 178.03805523 -843.24403483 196.54703207 -880 218 C-881.06283203 218.61407715 -882.12566406 219.2281543 -883.22070312 219.86083984 C-899.86362005 229.50365958 -916.00244497 239.82134399 -932 250.5 C-932.89369293 251.09628204 -933.78738586 251.69256409 -934.7081604 252.30691528 C-945.26709531 259.36399574 -955.72481978 266.5354819 -966 274 C-966.86882812 274.6295459 -967.73765625 275.2590918 -968.6328125 275.90771484 C-983.87179553 286.99258585 -998.60997475 298.61211172 -1013.20019531 310.53222656 C-1014.77310294 311.81496132 -1016.35098284 313.09159413 -1017.9296875 314.3671875 C-1028.69794194 323.09043219 -1039.14344366 332.20193352 -1049.33984375 341.5859375 C-1051.4448325 343.49619161 -1053.56965296 345.37087399 -1055.71533203 347.23461914 C-1068.98870109 358.84160599 -1081.46480692 371.30438325 -1093.91235352 383.78198242 C-1096.58690335 386.46195281 -1099.26683976 389.13645484 -1101.94726562 391.81054688 C-1103.67480033 393.53874152 -1105.40202526 395.26724589 -1107.12890625 396.99609375 C-1108.3118502 398.17600136 -1108.3118502 398.17600136 -1109.51869202 399.37974548 C-1113.65273817 403.53119768 -1117.63402874 407.75739575 -1121.44569397 412.20758057 C-1124.15676593 415.3339778 -1127.02878266 418.30966879 -1129.875 421.3125 C-1134.7652533 426.50758684 -1139.40429718 431.81352758 -1143.859375 437.390625 C-1146.15120465 440.18431516 -1148.55231812 442.84208778 -1151 445.5 C-1155.89506128 450.82631088 -1160.4617902 456.36940695 -1165 462 C-1166.4575077 463.77151295 -1167.91584922 465.54234017 -1169.375 467.3125 C-1174.15249743 473.15441396 -1178.81689455 479.08056708 -1183.45947266 485.02978516 C-1185.08669948 487.1108819 -1186.72088808 489.18639425 -1188.35546875 491.26171875 C-1195.96208619 500.9460598 -1203.28337186 510.79624477 -1210.43505859 520.8203125 C-1211.9070395 522.87052242 -1213.39623866 524.90646983 -1214.89453125 526.9375 C-1220.38225832 534.40331895 -1225.68606441 541.97612229 -1230.86328125 549.66015625 C-1231.38124268 550.42870941 -1231.8992041 551.19726257 -1232.43286133 551.98910522 C-1235.06546019 555.89944124 -1237.69020333 559.81483511 -1240.30615234 563.73632812 C-1241.2808717 565.19013956 -1242.25564161 566.64391709 -1243.23046875 568.09765625 C-1243.68198807 568.77909195 -1244.13350739 569.46052765 -1244.59870911 570.16261292 C-1247.77398744 574.88699372 -1247.77398744 574.88699372 -1250 576 C-1249.2845542 569.62803155 -1248.19079129 563.38134706 -1246.9609375 557.08984375 C-1246.75699371 556.04590958 -1246.55304993 555.0019754 -1246.34292603 553.92640686 C-1245.90921055 551.71646889 -1245.4737394 549.50687484 -1245.03662109 547.29760742 C-1244.60103068 545.08541892 -1244.17055557 542.87221606 -1243.74560547 540.65795898 C-1239.79597121 520.0806424 -1234.64338526 500.11066696 -1226.375 480.8125 C-1225.86557861 479.60529297 -1225.35615723 478.39808594 -1224.83129883 477.15429688 C-1201.17861106 421.40376774 -1171.02467387 369.92926822 -1134 322 C-1133.47486816 321.31744141 -1132.94973633 320.63488281 -1132.40869141 319.93164062 C-1126.03543061 311.65690579 -1119.3854554 303.66647986 -1112.53808594 295.78076172 C-1110.95463389 293.94747613 -1109.38573654 292.10260206 -1107.8203125 290.25390625 C-1098.67751806 279.46987975 -1098.67751806 279.46987975 -1093.66113281 274.66210938 C-1092.06482417 273.06486228 -1090.62431504 271.41167058 -1089.171875 269.68359375 C-1084.04674512 263.79006543 -1078.4776755 258.3285736 -1072.94848633 252.81811523 C-1071.06671726 250.94170525 -1069.19035262 249.06001031 -1067.31445312 247.17773438 C-1061.90558567 241.76586471 -1056.51228033 236.39529721 -1050.67993164 231.43481445 C-1047.93247301 229.08823483 -1045.32225222 226.59635351 -1042.6875 224.125 C-1037.8935086 219.66495644 -1032.97489004 215.43690447 -1027.8671875 211.3359375 C-1024.58421634 208.66125527 -1021.38733412 205.89795438 -1018.1875 203.125 C-1012.44251314 198.16484741 -1006.55204365 193.43244238 -1000.55859375 188.77734375 C-997.51003536 186.40829851 -994.49901128 183.99580418 -991.49487305 181.57080078 C-983.14825687 174.83814708 -974.61755692 168.38062592 -966 162 C-965.2467041 161.44022461 -964.4934082 160.88044922 -963.71728516 160.30371094 C-961.33430725 158.53315984 -958.94884355 156.76601173 -956.5625 155 C-955.86092773 154.47937988 -955.15935547 153.95875977 -954.43652344 153.42236328 C-940.21790067 142.93493616 -925.64635927 132.97088159 -910.9375 123.1875 C-909.66215897 122.33835022 -909.66215897 122.33835022 -908.36105347 121.4720459 C-886.98921935 107.25300613 -865.28888965 93.74164737 -843 81 C-841.50629883 80.14390137 -841.50629883 80.14390137 -839.98242188 79.27050781 C-824.31382905 70.31486143 -808.40722423 61.88265652 -792.32714844 53.69726562 C-789.39185866 52.19989737 -786.46439927 50.68855464 -783.5390625 49.171875 C-724.85431119 18.99322346 -661.63976353 -3.85356316 -598 -21 C-597.29993835 -21.18951233 -596.59987671 -21.37902466 -595.87860107 -21.57427979 C-529.99768957 -39.37028009 -462.11290974 -49.43046725 -394 -53 C-392.93217285 -53.05784668 -391.8643457 -53.11569336 -390.76416016 -53.17529297 C-295.05748081 -58.12437244 -198.45913883 -48.34772932 0 0 Z " fill="#685A8A" transform="translate(1829,603)"/>
<path d="M0 0 C1.21868774 0.00027191 2.43737549 0.00054382 3.69299316 0.00082397 C94.18899179 0.09251415 181.41184633 11.79819763 329.75 57.1875 C331.14720276 57.65742371 331.14720276 57.65742371 332.57263184 58.13684082 C360.41630999 67.50325707 387.93652359 77.68008402 415.42114258 88.04077148 C535.73251092 134.09337044 535.73251092 134.09337044 765.89477539 155.56787109 C768.55596122 155.21334972 771.06982464 155.11675051 773.75 155.1875 C730.0454222 200.71387909 648.64319048 222.04472233 587.83573914 224.29536438 C584.8771709 224.35036245 581.91998695 224.37774784 578.9609375 224.390625 C577.87161423 224.39768463 576.78229095 224.40474426 575.65995789 224.41201782 C551.20210219 224.53427941 527.02169548 224.39882336 502.75 221.1875 C502.0112262 221.09039734 501.27245239 220.99329468 500.5112915 220.89324951 C430.71086312 211.62243489 362.69890729 192.61209321 294.7822237 174.5361805 C224.82928997 155.91999418 154.78083745 139.52544893 82.6875 131.9375 C81.6049292 131.82152969 81.6049292 131.82152969 80.50048828 131.70321655 C53.08655263 128.80921664 25.62949783 127.80176087 -1.92026138 127.86964417 C-4.23381971 127.87510942 -6.54736774 127.87745924 -8.8609314 127.8795166 C-32.67860167 127.91246176 -56.34974179 128.5181622 -80.05786133 130.96289062 C-82.23903579 131.18637659 -84.42103056 131.3991097 -86.60351562 131.609375 C-166.33813359 139.38368549 -244.94415437 160.66940457 -381.61328125 225.65380859 C-384.28142661 227.20577981 -386.9652642 228.72630059 -389.65625 230.23828125 C-444.35490932 261.01000793 -494.35054048 299.28205317 -538.75 343.5625 C-539.31666382 344.12648499 -539.88332764 344.69046997 -540.46716309 345.27154541 C-546.61356625 351.3958969 -552.6428968 357.55821032 -558.25 364.1875 C-559.19881113 365.27103076 -560.14928294 366.35311 -561.1015625 367.43359375 C-568.28607339 375.67027792 -575.01754384 384.19230175 -581.56591797 392.94140625 C-583.2651321 395.20768198 -584.97798467 397.46320435 -586.69140625 399.71875 C-600.41080952 417.90944899 -612.30049515 437.22118568 -623.25 457.1875 C-623.73678223 458.07453613 -624.22356445 458.96157227 -624.72509766 459.87548828 C-670.352093 543.68784382 -687.02958959 635.64607983 -656.8626709 790.16574097 C-653.04264897 803.02785156 -648.76095534 815.70974854 -644.28125 828.35546875 C-642.78024981 832.6022502 -641.40887575 836.83541771 -640.25 841.1875 C-671.47763332 832.35399516 -690.89344484 795.87692851 -705.6875 769.81640625 C-709.10987551 763.69395926 -712.27357721 757.46109089 -715.30712891 751.13818359 C-716.24227794 749.20347599 -717.20287493 747.28319673 -718.16796875 745.36328125 C-737.46983311 706.40148335 -747.45202163 663.18376615 -752.25 620.1875 C-752.3545752 619.25156006 -752.45915039 618.31562012 -752.56689453 617.35131836 C-753.67310303 605.52636512 -753.49393092 593.61495047 -753.5 581.75 C-753.50067474 580.56631836 -753.50134949 579.38263672 -753.50204468 578.16308594 C-753.48558283 559.97197955 -752.93962555 542.20481445 -750.25 524.1875 C-750.00056641 522.44581543 -750.00056641 522.44581543 -749.74609375 520.66894531 C-737.51761455 437.22089741 -700.25828198 360.6162428 -646.67382812 295.91113281 C-644.66159527 293.47519935 -642.6769225 291.01707525 -640.6875 288.5625 C-632.94264339 279.1154771 -624.97614035 269.86753367 -616.69921875 260.8828125 C-614.74000719 258.72674236 -612.81740713 256.54978039 -610.90625 254.3515625 C-601.29982079 243.34663931 -591.06017719 232.90428881 -580.75 222.5625 C-579.92604736 221.73395508 -579.10209473 220.90541016 -578.25317383 220.05175781 C-574.01141345 215.8207426 -569.69492531 211.75152819 -565.15283203 207.84521484 C-561.99430881 205.09356323 -558.97745981 202.19358957 -555.9375 199.3125 C-550.81977623 194.4994328 -545.6105826 189.90837306 -540.1171875 185.5234375 C-536.62841945 182.68108969 -533.25715629 179.71756939 -529.875 176.75 C-523.74759038 171.40075983 -517.46677658 166.34019846 -510.95410156 161.46630859 C-509.15762623 160.11817997 -507.37139344 158.75721439 -505.5859375 157.39453125 C-432.50741138 101.81995487 -349.1900522 60.10300873 -74.6875 2.5 C-73.85841125 2.43906158 -73.02932251 2.37812317 -72.17510986 2.31533813 C-48.14228841 0.57518728 -24.09133916 -0.02056284 0 0 Z " fill="#6B578B" transform="translate(1452.25,1185.8125)"/>
<path d="M0 0 C42.57 0 85.14 0 129 0 C142.72679218 33.17308111 142.72679218 33.17308111 149.16711426 49.1572876 C150.78050225 53.16152643 152.39681167 57.1645845 154.0128479 61.16775513 C154.83523634 63.20503052 155.65748337 65.24236299 156.47958374 67.27975464 C160.22665524 76.56545521 163.98618115 85.84607739 167.75 95.125 C168.35913667 96.62695077 168.96826754 98.12890389 169.57739258 99.63085938 C170.78131624 102.59932302 171.98535438 105.56774019 173.18945312 108.53613281 C175.97996495 115.41569277 178.76886112 122.29590777 181.55792236 129.17605591 C183.12451199 133.04056407 184.69115285 136.90505147 186.2578125 140.76953125 C186.56758026 141.53363815 186.87734802 142.29774506 187.19650269 143.08500671 C189.05116311 147.65982168 190.90606606 152.23453822 192.76116943 156.80917358 C200.04062999 174.76016177 207.31388879 192.71364464 214.58044434 210.66986084 C219.28405114 222.29261857 223.99017931 233.91434752 228.7013855 245.5340271 C229.61582645 247.78986969 230.52977209 250.04591239 231.44360352 252.30200195 C234.35003615 259.47578523 237.26214211 266.64716468 240.18841553 273.81288147 C241.59984321 277.26999481 243.00874136 280.72813636 244.41741943 284.18637085 C245.09327071 285.84348637 245.77037922 287.50008974 246.4487915 289.15615845 C247.38433487 291.44009101 248.31566703 293.725698 249.24609375 296.01171875 C249.66674858 297.03384964 249.66674858 297.03384964 250.09590149 298.07662964 C252 302.77226939 252 302.77226939 252 305 C252.66 305 253.32 305 254 305 C254.16939433 304.39880561 254.33878866 303.79761122 254.51331615 303.17819881 C256.35446278 296.82456099 258.57839095 290.72408209 261.06567383 284.59790039 C261.46302734 283.60902832 261.86038086 282.62015625 262.26977539 281.60131836 C263.57805546 278.3484139 264.89252433 275.09804882 266.20703125 271.84765625 C267.13367125 269.54698864 268.05990767 267.24615844 268.98576355 264.94517517 C271.42769201 258.87932967 273.87481023 252.81559146 276.32312012 246.75231934 C278.76191875 240.71039111 281.19632495 234.6666943 283.63085938 228.62304688 C286.47931394 221.55244848 289.32805515 214.48196684 292.17880249 207.41229248 C297.15555755 195.06930879 302.12261274 182.72262855 307.05859375 170.36328125 C312.73357822 156.1537967 318.43356553 141.95444477 324.140625 127.7578125 C324.81462121 126.08111764 324.81462121 126.08111764 325.50223351 124.37055016 C329.2166179 115.1304757 332.9316419 105.89065845 336.64691162 96.65093994 C339.41818213 89.75889695 342.18914306 82.86672965 344.95967102 75.97438812 C345.86814225 73.71453518 346.77674101 71.45473351 347.68547058 69.19498444 C352.58444828 57.01237006 357.47291292 44.82572448 362.33398438 32.62792969 C363.17990985 30.50674381 364.02583674 28.38555849 364.87176514 26.26437378 C366.45711732 22.28859257 368.03900918 18.31145788 369.61895752 14.33352661 C370.32235529 12.56849713 371.02586026 10.80351036 371.72949219 9.03857422 C372.20865711 7.82785563 372.20865711 7.82785563 372.69750214 6.59267807 C374.88639766 1.11360234 374.88639766 1.11360234 376 0 C418.24 0 460.48 0 504 0 C504 146.85 504 293.7 504 445 C468.03 445 432.06 445 395 445 C394.505 316.3 394.505 316.3 394 185 C388.06 201.17 382.12 217.34 376 234 C368.01915265 255.32812653 368.01915265 255.32812653 365.08203125 263.12890625 C360.41011179 275.55168583 355.77614292 287.98861473 351.14096832 300.42514038 C350.20091573 302.94724016 349.26065393 305.46926193 348.32039642 307.99128532 C343.80841613 320.09378476 339.29851608 332.19705655 334.7922821 344.30169678 C322.28318607 377.90189416 309.67948708 411.46367547 297 445 C267.63 445 238.26 445 208 445 C202.37797777 431.50714664 202.37797777 431.50714664 200.1796875 425.609375 C199.92818939 424.93682678 199.67669128 424.26427856 199.41757202 423.5713501 C198.86402116 422.09025385 198.31149527 420.60877421 197.7598877 419.12695312 C196.82865916 416.62552093 195.89461249 414.12515513 194.95996094 411.625 C193.88271004 408.7432677 192.80566136 405.861461 191.72937012 402.97937012 C188.48058472 394.28035741 185.22208098 385.58501011 181.9609375 376.890625 C181.69380636 376.17843056 181.42667522 375.46623611 181.1514492 374.73246002 C179.75874834 371.0194869 178.36594884 367.3065508 176.97311401 363.59362793 C174.34111011 356.57724267 171.71004794 349.56050425 169.07889366 342.54380035 C167.57981377 338.54611344 166.08067532 334.54844849 164.58154297 330.55078125 C163.98199435 328.95198578 163.38244601 327.35319021 162.78289795 325.75439453 C162.48766991 324.96711975 162.19244186 324.17984497 161.88826752 323.36871338 C144.59217834 277.24580892 127.29608917 231.12290446 110 185 C109.67 270.8 109.34 356.6 109 445 C73.03 445 37.06 445 0 445 C0 298.15 0 151.3 0 0 Z " fill="#7D4490" transform="translate(40,4489)"/>
<path d="M0 0 C35.97 0 71.94 0 109 0 C109 155.1 109 310.2 109 470 C73.03 470 37.06 470 0 470 C-0.33 454.49 -0.66 438.98 -1 423 C-3.64 426.3 -6.28 429.6 -9 433 C-18.95595995 445.21173964 -31.04731352 453.88219409 -45 461 C-45.90975586 461.46599609 -45.90975586 461.46599609 -46.83789062 461.94140625 C-79.96816379 478.52388852 -121.95542727 478.93978349 -156.74609375 467.46484375 C-197.91493972 453.29358552 -226.96016658 423.66621305 -246.08203125 385.21875 C-250.16473015 376.71105871 -253.37072716 368.05597733 -256 359 C-256.35481445 357.78135254 -256.35481445 357.78135254 -256.71679688 356.53808594 C-272.21665288 301.9451028 -268.23692549 238.1750542 -240.84765625 187.984375 C-230.62717911 169.9725548 -217.40226951 153.65382842 -201 141 C-200.11054687 140.27167969 -199.22109375 139.54335938 -198.3046875 138.79296875 C-168.43699652 115.04025071 -128.81769123 106.73342069 -91.390625 110.5 C-64.54677371 113.71980193 -39.85808632 123.80224637 -19 141 C-18.30132813 141.556875 -17.60265625 142.11375 -16.8828125 142.6875 C-10.7465384 147.7056086 -5.93372029 153.83284964 -1 160 C-0.67 107.2 -0.34 54.4 0 0 Z M-130.31640625 227.26171875 C-147.3698565 244.662692 -154.11107162 268.20773517 -154.03515625 292.18359375 C-153.54714443 315.10958604 -148.209192 336.33771251 -133 354 C-132.31292969 354.79921875 -131.62585937 355.5984375 -130.91796875 356.421875 C-118.36743691 369.92708551 -100.43422551 378.48995591 -81.9921875 379.3359375 C-57.77373852 379.76682075 -39.46420279 372.79668325 -21.828125 355.921875 C-4.17108559 337.44357795 0.74921431 311.77829776 0.25390625 287.07421875 C-0.63432198 263.73479447 -8.38588934 241.73815721 -25.43994141 225.43408203 C-55.62064393 197.69050666 -101.13329171 198.74119729 -130.31640625 227.26171875 Z " fill="#69598A" transform="translate(1478,4465)"/>
<path d="M0 0 C22.78177814 20.65326164 36.83076872 44.95510787 43.48828125 75.05078125 C43.68317139 75.93121094 43.87806152 76.81164063 44.07885742 77.71875 C47.40910792 93.85189827 47.96175612 109.69724553 47.90283203 126.10180664 C47.90226662 128.33088679 47.90258702 130.55996731 47.90371704 132.78904724 C47.90428647 138.78788258 47.89259917 144.78663651 47.87856913 150.78545308 C47.86599278 157.07412242 47.86488586 163.36279402 47.86251831 169.651474 C47.85702573 180.18961892 47.84456774 190.72773894 47.82666016 201.26586914 C47.80824985 212.11124529 47.79414167 222.95661333 47.78564453 233.80200195 C47.78510854 234.47940168 47.78457254 235.15680141 47.7840203 235.8547284 C47.77939346 241.7488441 47.7750884 247.64296003 47.7708149 253.537076 C47.75205824 278.83333888 47.71219912 304.12952334 47.67578125 329.42578125 C12.03578125 329.42578125 -23.60421875 329.42578125 -60.32421875 329.42578125 C-60.37320312 315.48585937 -60.4221875 301.5459375 -60.47265625 287.18359375 C-60.50805671 278.33332726 -60.54394578 269.48306717 -60.58203125 260.6328125 C-60.64234349 246.59653202 -60.70070542 232.56026352 -60.74609375 218.52392578 C-60.77916597 208.29919123 -60.81907982 198.07450946 -60.86700881 187.84983337 C-60.89212329 182.44233259 -60.91394791 177.03486613 -60.92756271 171.62732315 C-60.94052105 166.52362133 -60.9627194 161.42003818 -60.99160194 156.31640244 C-61.00057134 154.45663497 -61.0063426 152.59684846 -61.00843239 150.73706055 C-61.04197895 125.38694974 -62.51709827 99.88814693 -81.0859375 80.5703125 C-94.66177826 67.56309334 -111.81653868 62.91233129 -130.2800293 63.07202148 C-147.5939758 63.56221987 -163.85667819 69.15067892 -176.32421875 81.42578125 C-189.44929643 96.16979058 -194.45763315 115.71586811 -194.48243713 135.05651855 C-194.48737511 135.88823153 -194.49231309 136.71994451 -194.4974007 137.5768609 C-194.51266994 140.34355644 -194.52110742 143.11022897 -194.52954102 145.87695312 C-194.53912787 147.86825765 -194.54913842 149.85956016 -194.55953979 151.8508606 C-194.58650746 157.24276404 -194.60756096 162.63467617 -194.62754178 168.02660942 C-194.64945168 173.66672206 -194.67681583 179.30680819 -194.70359802 184.94689941 C-194.75345735 195.62099101 -194.7984212 206.29509737 -194.84162039 216.96921778 C-194.90029674 231.39756211 -194.96654721 245.82587155 -195.03237057 260.25418472 C-195.13583949 282.9780267 -195.22919896 305.70189874 -195.32421875 328.42578125 C-231.29421875 328.42578125 -267.26421875 328.42578125 -304.32421875 328.42578125 C-304.32421875 211.60578125 -304.32421875 94.78578125 -304.32421875 -25.57421875 C-268.35421875 -25.57421875 -232.38421875 -25.57421875 -195.32421875 -25.57421875 C-194.99421875 -11.05421875 -194.66421875 3.46578125 -194.32421875 18.42578125 C-191.35421875 14.79578125 -188.38421875 11.16578125 -185.32421875 7.42578125 C-137.37338409 -38.70413564 -51.35788935 -44.05365619 0 0 Z " fill="#72508D" transform="translate(1112.32421875,4605.57421875)"/>
<path d="M0 0 C19.47 0 38.94 0 59 0 C59 64.02 59 128.04 59 194 C132.92 194 206.84 194 283 194 C283 129.98 283 65.96 283 0 C302.14 0 321.28 0 341 0 C341 146.19 341 292.38 341 443 C321.86 443 302.72 443 283 443 C283 376.67 283 310.34 283 242 C209.08 242 135.16 242 59 242 C59 308.33 59 374.66 59 443 C39.53 443 20.06 443 0 443 C0 296.81 0 150.62 0 0 Z " fill="#5E6587" transform="translate(1783,4492)"/>
<path d="M0 0 C19.47 0 38.94 0 59 0 C59.33 55.11 59.66 110.22 60 167 C62.64 163.7 65.28 160.4 68 157 C91.91463539 130.32844954 125.72728257 117.4871411 161 115 C197.98474607 113.15411332 236.58090634 120.88016767 265.32421875 145.578125 C266.20722656 146.37734375 267.09023437 147.1765625 268 148 C269.46373047 149.32257813 269.46373047 149.32257813 270.95703125 150.671875 C290.0313067 168.51584895 301.87485997 192.76176952 307.75 217.9375 C307.94875732 218.7819165 308.14751465 219.62633301 308.35229492 220.49633789 C311.85640561 236.45183205 312.28597174 252.23834044 312.22705078 268.49243164 C312.22648535 270.70180761 312.2268058 272.91118394 312.22793579 275.12055969 C312.22850515 281.06567805 312.21681893 287.01071424 312.20278788 292.95581365 C312.19021044 299.18842852 312.18910452 305.42104566 312.18673706 311.65367126 C312.180894 322.76461613 312.16648357 333.87552732 312.14745162 344.98645686 C312.13027559 355.0678737 312.11781132 365.14928453 312.10986328 375.23071289 C312.10933783 375.8953336 312.10881239 376.55995431 312.10827102 377.24471504 C312.10566059 380.57954617 312.10313779 383.91437735 312.10064721 387.24920857 C312.07979174 414.83283125 312.04314137 442.41640255 312 470 C292.86 470 273.72 470 254 470 C253.97812622 460.47064575 253.97812622 460.47064575 253.95581055 450.7487793 C253.905398 429.72219659 253.83893934 408.69568699 253.76428509 387.66917706 C253.71942666 374.92504901 253.67998928 362.18094828 253.65356445 349.43676758 C253.63050352 338.32169318 253.59701582 327.20670598 253.55129844 316.09170085 C253.52747497 310.21298855 253.5086752 304.33436202 253.50238609 298.45560265 C253.49628569 292.90781932 253.47610952 287.36025517 253.44572449 281.81255341 C253.43702295 279.79034009 253.43320504 277.76809803 253.43499184 275.74586678 C253.45373862 244.70332063 247.80780867 214.53325389 225.546875 191.45703125 C206.19823473 172.75900315 179.95617522 166.37044477 153.64453125 166.78125 C127.99886043 167.65447991 102.9432614 176.75332553 85 195.59375 C74.89346492 207.75317501 68.41075744 221.17383213 64.25 236.375 C64.05108154 237.09268555 63.85216309 237.81037109 63.6472168 238.54980469 C59.90943024 253.15459231 59.69690624 267.94110686 59.68115234 282.91015625 C59.6718326 284.96175523 59.66166096 287.01335048 59.65071106 289.06494141 C59.6236275 294.58447121 59.60832653 300.1039758 59.59528303 305.62355423 C59.57955683 311.4104422 59.55279732 317.1972794 59.5272522 322.98413086 C59.48063131 333.92002947 59.44380687 344.85593781 59.41057932 355.79188442 C59.37223939 368.25154212 59.32286066 380.71114861 59.27259517 393.17076302 C59.16952378 418.78047542 59.08164017 444.39020969 59 470 C39.53 470 20.06 470 0 470 C0 314.9 0 159.8 0 0 Z " fill="#4A7A82" transform="translate(2957,4465)"/>
<path d="M0 0 C19.14 0 38.28 0 58 0 C58.01458252 6.22125732 58.02916504 12.44251465 58.04418945 18.85229492 C58.09462863 39.45577707 58.16109237 60.05918482 58.23571491 80.66259289 C58.28055022 93.1488326 58.31999274 105.63504456 58.34643555 118.12133789 C58.3695154 129.01302965 58.40302367 139.90463271 58.44870156 150.79625398 C58.47249987 156.55542269 58.49131593 162.31450429 58.49761391 168.07372093 C58.50372595 173.5115281 58.52394241 178.94911275 58.55427551 184.38683701 C58.56295885 186.3662835 58.56679889 188.34575919 58.56500816 190.32522392 C58.54697562 219.49620832 62.43674528 250.65028877 83 273 C84.12341797 274.26070312 84.12341797 274.26070312 85.26953125 275.546875 C103.03819909 294.49246591 127.85730782 301.01039121 153 302 C178.57105804 302.46200247 203.79492084 295.03350647 222.66015625 277.30078125 C223.43230469 276.54152344 224.20445312 275.78226563 225 275 C225.69996094 274.31292969 226.39992188 273.62585937 227.12109375 272.91796875 C248.48984857 250.46619711 252.28819981 218.65677702 252.31884766 189.13330078 C252.32816323 187.06229264 252.33833428 184.9912882 252.34928894 182.92028809 C252.37641936 177.33865832 252.39168768 171.75705356 252.40471697 166.17537546 C252.42042226 160.32708296 252.44718864 154.47884096 252.4727478 148.63058472 C252.51940522 137.57420507 252.55621218 126.51781579 252.58942068 115.46138847 C252.62773452 102.86635067 252.67712024 90.27136376 252.72740483 77.67636895 C252.83053067 51.78427898 252.9183924 25.89216736 253 0 C272.47 0 291.94 0 312 0 C312 115.17 312 230.34 312 349 C292.53 349 273.06 349 253 349 C252.67 333.49 252.34 317.98 252 302 C247.545 307.445 247.545 307.445 243 313 C220.38486449 338.33527768 188.52984799 350.51706273 155.25 353.8125 C118.05787955 355.62782969 76.78406173 348.31777457 48.07910156 322.83789062 C45.66642771 320.61009005 43.33410324 318.31018125 41 316 C40.21238281 315.27296875 39.42476562 314.5459375 38.61328125 313.796875 C19.81643743 296.08257192 9.22199756 271.38542379 3.75 246.5625 C3.52304443 245.54639648 3.52304443 245.54639648 3.29150391 244.50976562 C0.0311991 228.43296315 -0.28817275 212.16588947 -0.22705078 195.83129883 C-0.22648507 193.68074041 -0.22680634 191.53018161 -0.22793579 189.37962341 C-0.22850407 183.60403846 -0.21683579 177.82853844 -0.20278788 172.05297303 C-0.19019199 165.99387191 -0.18910309 159.93476833 -0.18673706 153.87565613 C-0.18054812 142.4298297 -0.16417267 130.98404198 -0.14403808 119.53823251 C-0.12159811 106.49572382 -0.11066538 93.45321317 -0.10064721 80.41068995 C-0.07980385 53.6071003 -0.04316033 26.80356364 0 0 Z " fill="#556E85" transform="translate(2218,4586)"/>
<path d="M0 0 C16.41146752 14.76798776 26.84792664 34.02741813 31.4831543 55.51586914 C31.64267578 56.25474365 31.80219727 56.99361816 31.96655273 57.75488281 C33.30522022 64.52579205 33.63104237 70.87591413 34.1706543 77.89086914 C14.7006543 77.89086914 -4.7693457 77.89086914 -24.8293457 77.89086914 C-26.8093457 68.98086914 -26.8093457 68.98086914 -28.8293457 59.89086914 C-35.92017714 43.01469032 -46.80458021 31.63750246 -63.45043945 24.29321289 C-75.37483812 19.81340047 -86.70257656 18.49732229 -99.3918457 18.51586914 C-100.05031494 18.5167453 -100.70878418 18.51762146 -101.38720703 18.51852417 C-121.42172767 18.60624045 -139.82737659 22.13341635 -154.70825195 36.57446289 C-163.45544513 46.12710663 -166.43622654 55.59547202 -166.11450195 68.49243164 C-165.18030852 79.62596976 -160.24197361 88.24397732 -152.2434082 95.88305664 C-131.07328312 113.49057167 -100.73144538 119.58497515 -74.7668457 126.89086914 C-10.73628567 144.92582637 -10.73628567 144.92582637 12.1706543 166.89086914 C13.3462793 167.97174805 13.3462793 167.97174805 14.5456543 169.07446289 C29.75121133 183.48378299 36.42216816 203.23127431 37.2956543 223.84008789 C37.79396333 249.65872478 28.86642598 272.34505513 11.1706543 290.89086914 C10.34049805 291.76356445 9.5103418 292.63625977 8.6550293 293.53540039 C-17.25340667 318.76830966 -54.80981503 327.37862564 -89.8918457 327.20336914 C-91.03496216 327.20063492 -91.03496216 327.20063492 -92.20117188 327.19784546 C-135.31751995 327.02500624 -175.20482896 314.41981153 -206.16918945 283.55883789 C-217.68802712 271.37052932 -225.27892658 256.42609117 -229.6418457 240.32836914 C-229.84898193 239.57346191 -230.05611816 238.81855469 -230.26953125 238.04077148 C-231.92980396 231.51022556 -232.25044983 225.83761967 -232.8293457 218.89086914 C-212.6993457 218.89086914 -192.5693457 218.89086914 -171.8293457 218.89086914 C-170.5093457 223.84086914 -169.1893457 228.79086914 -167.8293457 233.89086914 C-160.3849889 251.37645139 -147.31892683 263.06475023 -129.82446289 270.14770508 C-118.08455209 274.52072129 -106.43017767 276.09560263 -93.95605469 276.13110352 C-91.92835639 276.14069641 -89.90172386 276.17171718 -87.87426758 276.20336914 C-67.89023462 276.36593244 -48.36128481 271.1520901 -33.5168457 257.14086914 C-24.52237419 247.75103624 -21.4113811 237.06060055 -21.46362305 224.31494141 C-21.60862392 218.17901003 -22.69475026 213.23927262 -25.8293457 207.89086914 C-26.4480957 206.83512695 -26.4480957 206.83512695 -27.0793457 205.75805664 C-41.9767096 183.4966549 -81.64998347 177.39646264 -106.1418457 170.95336914 C-146.78526757 160.25347204 -191.77422963 148.20047346 -215.5793457 110.26586914 C-226.94400459 89.69873705 -229.15240668 63.41320775 -222.8293457 40.89086914 C-218.03048557 26.63495063 -210.20944549 14.71662616 -199.8293457 3.89086914 C-199.24282227 3.2527832 -198.65629883 2.61469727 -198.05200195 1.95727539 C-150.54901609 -48.22823202 -49.37998941 -43.12087588 0 0 Z " fill="#4F7583" transform="translate(2839.829345703125,4613.109130859375)"/>
<path d="M0 0 C35.97 0 71.94 0 109 0 C109 116.82 109 233.64 109 354 C73.03 354 37.06 354 0 354 C0 237.18 0 120.36 0 0 Z " fill="#784A8E" transform="translate(621,4580)"/>
<path d="M0 0 C0.61617187 0.44988281 1.23234375 0.89976563 1.8671875 1.36328125 C12.45479165 9.71572452 19.03141587 22.83331046 21 36 C22.28881792 52.43788956 20.40729103 67.41814553 9.85546875 80.69921875 C7.64444553 83.21910722 5.36595174 85.62565836 3 88 C2.45859375 88.56460938 1.9171875 89.12921875 1.359375 89.7109375 C-10.37859922 100.91536744 -27.06256849 104.58543925 -42.75 104.4375 C-44.45071655 104.42614014 -44.45071655 104.42614014 -46.18579102 104.41455078 C-64.25876802 104.06181941 -79.74523552 98.69802155 -93 86 C-106.80595022 70.65271562 -109.01737681 54.77855885 -108 35 C-107.47396829 31.0369306 -106.55345128 27.67394181 -105 24 C-104.60941406 23.03320312 -104.21882812 22.06640625 -103.81640625 21.0703125 C-97.38549138 6.75105162 -86.06832373 -3.09930823 -71.89453125 -9.375 C-47.58622194 -18.10929344 -20.79210066 -15.3766676 0 0 Z " fill="#784A8E" transform="translate(719,4440)"/>
</svg>
